<?xml version="1.0" encoding="UTF-8" standalone="no"?>
<!-- Generator: Adobe Illustrator 18.0.0, SVG Export Plug-In . SVG Version: 6.00 Build 0)  -->

<svg
   xmlns:dc="http://purl.org/dc/elements/1.1/"
   xmlns:cc="http://creativecommons.org/ns#"
   xmlns:rdf="http://www.w3.org/1999/02/22-rdf-syntax-ns#"
   xmlns:svg="http://www.w3.org/2000/svg"
   xmlns="http://www.w3.org/2000/svg"
   xmlns:sodipodi="http://sodipodi.sourceforge.net/DTD/sodipodi-0.dtd"
   xmlns:inkscape="http://www.inkscape.org/namespaces/inkscape"
   version="1.1"
   id="Layer_1"
   x="0px"
   y="0px"
   viewBox="0 0 75 75"
   enable-background="new 0 0 100 100"
   xml:space="preserve"
   inkscape:version="0.91 r13725"
   sodipodi:docname="car.svg"
   width="75"
   height="75"
   inkscape:export-filename="/home/elio/Desktop/feature/car.png"
   inkscape:export-xdpi="90"
   inkscape:export-ydpi="90"><metadata
     id="metadata11"><rdf:RDF><cc:Work
         rdf:about=""><dc:format>image/svg+xml</dc:format><dc:type
           rdf:resource="http://purl.org/dc/dcmitype/StillImage" /><dc:title></dc:title></cc:Work></rdf:RDF></metadata><defs
     id="defs9" /><sodipodi:namedview
     pagecolor="#ffffff"
     bordercolor="#666666"
     borderopacity="1"
     objecttolerance="10"
     gridtolerance="10"
     guidetolerance="10"
     inkscape:pageopacity="0"
     inkscape:pageshadow="2"
     inkscape:window-width="1920"
     inkscape:window-height="1027"
     id="namedview7"
     showgrid="false"
     fit-margin-top="0"
     fit-margin-left="0"
     fit-margin-right="0"
     fit-margin-bottom="0"
     inkscape:zoom="2.36"
     inkscape:cx="48.755932"
     inkscape:cy="26.422034"
     inkscape:window-x="0"
     inkscape:window-y="24"
     inkscape:window-maximized="1"
     inkscape:current-layer="Layer_1" /><g
     id="g3"
     transform="matrix(0.89605051,0,0,0.89605051,-6.8099839,-5.124991)"><path
       d="M 88.2,44.7 C 86.7,44.2 76,41.9 76,41.9 c 0,0 -19.8,-11.3 -22.2,-11.3 -2.4,0 -18.7,0 -18.7,0 -4,0 -7.3,3 -11.2,6.6 -1.8,1.7 -3.8,3.5 -6,5.1 l -8.2,1.1 c -1.2,0.4 -2.1,1.5 -2.1,2.8 l 0,9.4 c 0,1.6 1.3,3 3,3 l 5.7,0 c 0.4,4.7 4.4,8.5 9.2,8.5 4.8,0 8.8,-3.7 9.2,-8.5 l 27,0 c 0.4,4.7 4.4,8.5 9.2,8.5 4.8,0 8.8,-3.7 9.2,-8.5 l 4.7,0 c 3.7,0 5.5,-1.6 5.9,-3.1 1.3,-3.8 0.5,-9.8 -2.5,-10.8 z M 25.5,62.6 c -2.7,0 -4.8,-2.2 -4.8,-4.8 0,-2.7 2.2,-4.8 4.8,-4.8 2.7,0 4.8,2.2 4.8,4.8 0,2.6 -2.2,4.8 -4.8,4.8 z m 17.8,-20.7 -16.1,0 c 1.2,-0.9 2.2,-1.9 3.2,-2.8 2.6,-2.4 4.9,-4.4 7.6,-4.4 0,0 2.4,0 5.3,0 l 0,7.2 0,0 z m 3.9,-7.3 c 2,0 3.8,0 4.7,0 2.2,0 11.2,5.2 14.6,7.2 l -19.3,0 0,-7.2 0,0 z m 23.8,28 c -2.7,0 -4.8,-2.2 -4.8,-4.8 0,-2.7 2.2,-4.8 4.8,-4.8 2.6,0 4.8,2.2 4.8,4.8 0,2.6 -2.2,4.8 -4.8,4.8 z"
       id="path5"
       inkscape:connector-curvature="0"
       style="fill:#010202" /></g></svg>