<?xml version="1.0" encoding="UTF-8" standalone="no"?>
<!-- Generator: Adobe Illustrator 18.0.0, SVG Export Plug-In . SVG Version: 6.00 Build 0)  -->

<svg
   xmlns:dc="http://purl.org/dc/elements/1.1/"
   xmlns:cc="http://creativecommons.org/ns#"
   xmlns:rdf="http://www.w3.org/1999/02/22-rdf-syntax-ns#"
   xmlns:svg="http://www.w3.org/2000/svg"
   xmlns="http://www.w3.org/2000/svg"
   xmlns:sodipodi="http://sodipodi.sourceforge.net/DTD/sodipodi-0.dtd"
   xmlns:inkscape="http://www.inkscape.org/namespaces/inkscape"
   version="1.1"
   id="Layer_1"
   x="0px"
   y="0px"
   viewBox="0 0 75.000001 75"
   enable-background="new 0 0 100 100"
   xml:space="preserve"
   inkscape:version="0.91 r13725"
   sodipodi:docname="coins.svg"
   width="75"
   height="75"
   inkscape:export-filename="/home/elio/Desktop/feature/coins.png"
   inkscape:export-xdpi="90"
   inkscape:export-ydpi="90"><metadata
     id="metadata11"><rdf:RDF><cc:Work
         rdf:about=""><dc:format>image/svg+xml</dc:format><dc:type
           rdf:resource="http://purl.org/dc/dcmitype/StillImage" /><dc:title></dc:title></cc:Work></rdf:RDF></metadata><defs
     id="defs9" /><sodipodi:namedview
     pagecolor="#ffffff"
     bordercolor="#666666"
     borderopacity="1"
     objecttolerance="10"
     gridtolerance="10"
     guidetolerance="10"
     inkscape:pageopacity="0"
     inkscape:pageshadow="2"
     inkscape:window-width="1920"
     inkscape:window-height="1027"
     id="namedview7"
     showgrid="false"
     fit-margin-top="0"
     fit-margin-left="0"
     fit-margin-right="0"
     fit-margin-bottom="0"
     inkscape:zoom="2.36"
     inkscape:cx="39.976271"
     inkscape:cy="43.899999"
     inkscape:window-x="0"
     inkscape:window-y="24"
     inkscape:window-maximized="1"
     inkscape:current-layer="Layer_1" /><g
     id="g3"
     transform="matrix(0.80645161,0,0,0.80645161,-3.7419355,-2.7258064)"><path
       d="m 81.3,32.6 0,0 c 0.5,-1.2 0.9,-2.5 0.9,-3.8 l 0,-5.4 C 82.2,14.4 68.3,7.1 51.1,7.1 33.9,7.1 20,14.4 20,23.4 20,23 20.1,22.5 20.1,22.1 13.7,25.1 9.6,29.4 9.6,34.3 l 0,5.4 c 0,5 4.4,9.5 11.2,12.5 l 0,0 c -0.5,1.2 -0.9,2.5 -0.9,3.8 l 0,5.4 c 0,1.9 0.7,3.7 1.8,5.4 -1.2,1.7 -1.8,3.5 -1.8,5.4 l 0,5.4 c 0,9 13.9,16.3 31.1,16.3 17.2,0 31.1,-7.3 31.1,-16.3 l 0,-5.4 c 0,-1.9 -0.7,-3.8 -1.9,-5.5 0,0 0,0 0,0 0.9,-1.3 1.6,-2.6 1.8,-4.1 6.4,-3 10.5,-7.3 10.5,-12.2 l 0,-5.4 c 0,-4.9 -4.4,-9.4 -11.2,-12.4 z M 51,9.8 C 67.8,9.8 79.5,17 79.5,23.4 79.5,29.8 67.8,37 51,37 34.2,37 22.5,29.8 22.5,23.4 22.5,17 34.2,9.8 51,9.8 Z M 12.1,34.3 c 0,-3.2 2.9,-6.5 7.8,-9.1 l 0,3.7 c 0,9 13.9,16.3 31.1,16.3 2.6,0 5.1,-0.2 7.4,-0.5 -4.8,1.9 -10.8,3.2 -17.8,3.2 C 23.8,47.8 12.1,40.7 12.1,34.3 Z m 67.4,38 c 0,6.4 -11.7,13.6 -28.5,13.6 -16.8,0 -28.5,-7.2 -28.5,-13.6 0,-1.1 0.4,-2.1 1,-3.2 0,0 0,0 0,0 5.2,5.2 15.6,8.7 27.5,8.7 11.9,0 22.2,-3.5 27.5,-8.7 0,0 0,0 0,0 0.6,1 1,2.1 1,3.2 z M 68.8,66.4 C 64.1,68.3 58,69.6 51,69.6 34.2,69.6 22.5,62.4 22.5,56 c 0,-0.9 0.3,-1.9 0.8,-2.8 2.5,0.9 5.4,1.6 8.4,2.1 3.9,6.7 15.7,11.6 29.8,11.6 2.5,0 4.9,-0.2 7.3,-0.5 0,0 0,0 0,0 z m -7.4,-7.7 c -6.7,0 -12.5,-1.1 -17.1,-2.9 14.6,-0.9 26.2,-7 27.4,-14.8 3.5,-1.6 6.4,-3.7 8.2,-6 0,0 0,0 0,0 C 86.2,37.7 90,41.5 90,45.1 89.9,51.5 78.2,58.7 61.4,58.7 Z M 56.5,27.4 c 0,-0.6 -0.4,-1 -1.3,-1.3 C 54.3,25.8 52.4,25.4 49.4,25 46.7,24.6 44.6,24.2 43.1,23.8 41.6,23.4 40.3,22.9 39.4,22.2 38.5,21.5 38,20.7 38,19.7 c 0,-1.2 0.9,-2.3 2.5,-3.3 1.7,-1 4.4,-1.6 8,-1.8 l 0,-1.9 4.9,0 0,1.9 c 5.5,0.3 9,1.6 10.7,4 l -6.8,1.2 c -1.3,-1.6 -3.4,-2.4 -6.1,-2.4 -1.4,0 -2.5,0.2 -3.3,0.6 -0.8,0.4 -1.3,0.8 -1.3,1.3 0,0.5 0.4,0.9 1.2,1.2 0.8,0.3 2.5,0.6 5.2,1 2.9,0.5 5.2,0.9 6.9,1.3 1.7,0.4 3,1 4,1.7 1,0.7 1.5,1.6 1.5,2.5 0,1.5 -1,2.7 -3.1,3.7 -2,1 -5,1.6 -8.8,1.7 l 0,2.5 -4.9,0 0,-2.5 C 42.2,32.1 38.2,30.5 36.7,27.6 l 7.6,-0.8 c 0.7,1.8 3,2.8 7,2.8 1.8,0 3.2,-0.2 4.1,-0.6 0.7,-0.6 1.1,-1.1 1.1,-1.6 z"
       id="path5"
       inkscape:connector-curvature="0"
       style="fill:#010202" /></g></svg>