<?xml version="1.0" encoding="UTF-8" standalone="no"?>
<svg
   xmlns:dc="http://purl.org/dc/elements/1.1/"
   xmlns:cc="http://creativecommons.org/ns#"
   xmlns:rdf="http://www.w3.org/1999/02/22-rdf-syntax-ns#"
   xmlns:svg="http://www.w3.org/2000/svg"
   xmlns="http://www.w3.org/2000/svg"
   xmlns:sodipodi="http://sodipodi.sourceforge.net/DTD/sodipodi-0.dtd"
   xmlns:inkscape="http://www.inkscape.org/namespaces/inkscape"
   xml:space="preserve"
   viewBox="0 0 75 75.000001"
   height="75"
   width="75"
   y="0px"
   x="0px"
   id="Capa_1"
   version="1.1"
   inkscape:version="0.91 r13725"
   sodipodi:docname="efficient.svg"
   inkscape:export-filename="/home/elio/Desktop/feature/efficient.png"
   inkscape:export-xdpi="90"
   inkscape:export-ydpi="90"><sodipodi:namedview
     pagecolor="#ffffff"
     bordercolor="#666666"
     borderopacity="1"
     objecttolerance="10"
     gridtolerance="10"
     guidetolerance="10"
     inkscape:pageopacity="0"
     inkscape:pageshadow="2"
     inkscape:window-width="1920"
     inkscape:window-height="1027"
     id="namedview22"
     showgrid="false"
     fit-margin-top="0"
     fit-margin-left="0"
     fit-margin-right="0"
     fit-margin-bottom="0"
     inkscape:zoom="2.6700352"
     inkscape:cx="68.584903"
     inkscape:cy="38.892683"
     inkscape:window-x="0"
     inkscape:window-y="24"
     inkscape:window-maximized="1"
     inkscape:current-layer="Capa_1"
     units="px" /><metadata
     id="metadata41"><rdf:RDF><cc:Work
         rdf:about=""><dc:format>image/svg+xml</dc:format><dc:type
           rdf:resource="http://purl.org/dc/dcmitype/StillImage" /><dc:title></dc:title></cc:Work></rdf:RDF></metadata><defs
     id="defs39" /><g
     transform="matrix(0.69410703,0,0,0.69410703,1.5753381,3.8764218)"
     id="feature_efficient"><path
       id="path5"
       d="m 45.173,38.293 0,-8.12 8.119,0 c 1.543,0 2.799,-1.253 2.799,-2.802 l 0,-13.647 c 0,-1.549 -1.256,-2.802 -2.799,-2.802 l -8.119,0 0,-8.119 C 45.173,1.256 43.917,0 42.372,0 L 28.716,0 c -1.547,0 -2.802,1.256 -2.802,2.803 l 0,8.119 -8.114,0 c -1.541,0 -2.803,1.253 -2.803,2.802 l 0,13.647 c 0,1.548 1.262,2.802 2.803,2.802 l 8.115,0 0,8.12 c 0,1.546 1.255,2.802 2.802,2.802 l 13.655,0 c 1.557,0 2.801,-1.256 2.801,-2.802 z m -5.603,-10.921 0,8.12 -8.052,0 0,-8.12 c 0,-1.546 -1.256,-2.801 -2.802,-2.801 l -8.115,0 0,-8.045 8.115,0 c 1.546,0 2.802,-1.256 2.802,-2.802 l 0,-8.12 8.052,0 0,8.12 c 0,1.546 1.261,2.802 2.802,2.802 l 8.119,0 0,8.045 -8.119,0 c -1.541,0 -2.802,1.254 -2.802,2.801 z m 44.09,-2.425 c -0.118,-0.936 -0.688,-1.753 -1.543,-2.175 -0.843,-0.418 -1.85,-0.379 -2.66,0.106 -1.619,0.958 -39.674,23.606 -46.346,37.149 -7.045,14.326 -1.695,31.409 11.922,38.118 3.653,1.789 7.587,2.704 11.661,2.704 10.735,0 20.866,-6.485 25.797,-16.521 6.668,-13.547 1.4,-57.515 1.169,-59.381 z m -6.189,56.892 c -4.011,8.143 -12.163,13.4 -20.777,13.4 -2.266,0 -4.432,-0.481 -6.54,-1.187 l 2.633,-5.347 13.68,-3.009 c 1.517,-0.334 2.462,-1.828 2.14,-3.338 -0.322,-1.517 -1.812,-2.458 -3.344,-2.141 l -9.311,2.048 3.27,-6.666 13.681,-3.004 c 1.521,-0.334 2.468,-1.827 2.134,-3.343 -0.328,-1.512 -1.795,-2.464 -3.336,-2.135 l -9.305,2.047 4.772,-9.708 c 0.689,-1.384 0.12,-3.063 -1.271,-3.753 -1.388,-0.663 -3.068,-0.104 -3.753,1.287 l -4.958,10.07 -3.855,-8.909 c -0.615,-1.418 -2.275,-2.068 -3.688,-1.455 -1.421,0.606 -2.064,2.26 -1.454,3.683 l 5.737,13.285 -3.188,6.49 -3.855,-8.909 c -0.619,-1.416 -2.27,-2.065 -3.682,-1.454 -1.424,0.612 -2.074,2.266 -1.462,3.688 l 5.743,13.285 -2.383,4.837 C 36.111,85.527 32.88,73.122 38.111,62.507 42.544,53.516 66.127,37.636 78.549,29.956 c 1.527,14.529 3.343,42.893 -1.078,51.883 z"
       inkscape:connector-curvature="0" /></g><g
     transform="translate(-26.107593,-14.738409)"
     id="g7" /><g
     transform="translate(-26.107593,-14.738409)"
     id="g9" /><g
     transform="translate(-26.107593,-14.738409)"
     id="g11" /><g
     transform="translate(-26.107593,-14.738409)"
     id="g13" /><g
     transform="translate(-26.107593,-14.738409)"
     id="g15" /><g
     transform="translate(-26.107593,-14.738409)"
     id="g17" /><g
     transform="translate(-26.107593,-14.738409)"
     id="g19" /><g
     transform="translate(-26.107593,-14.738409)"
     id="g21" /><g
     transform="translate(-26.107593,-14.738409)"
     id="g23" /><g
     transform="translate(-26.107593,-14.738409)"
     id="g25" /><g
     transform="translate(-26.107593,-14.738409)"
     id="g27" /><g
     transform="translate(-26.107593,-14.738409)"
     id="g29" /><g
     transform="translate(-26.107593,-14.738409)"
     id="g31" /><g
     transform="translate(-26.107593,-14.738409)"
     id="g33" /><g
     transform="translate(-26.107593,-14.738409)"
     id="g35" /></svg>