<?xml version="1.0" encoding="UTF-8" standalone="no"?>
<!-- Generator: Adobe Illustrator 18.0.0, SVG Export Plug-In . SVG Version: 6.00 Build 0)  -->

<svg
   xmlns:dc="http://purl.org/dc/elements/1.1/"
   xmlns:cc="http://creativecommons.org/ns#"
   xmlns:rdf="http://www.w3.org/1999/02/22-rdf-syntax-ns#"
   xmlns:svg="http://www.w3.org/2000/svg"
   xmlns="http://www.w3.org/2000/svg"
   xmlns:sodipodi="http://sodipodi.sourceforge.net/DTD/sodipodi-0.dtd"
   xmlns:inkscape="http://www.inkscape.org/namespaces/inkscape"
   version="1.1"
   id="Layer_1"
   x="0px"
   y="0px"
   viewBox="0 0 75 75"
   enable-background="new 0 0 100 100"
   xml:space="preserve"
   inkscape:version="0.91 r13725"
   sodipodi:docname="family.svg"
   width="75"
   height="75"
   inkscape:export-filename="/home/elio/Desktop/feature/family.png"
   inkscape:export-xdpi="90"
   inkscape:export-ydpi="90"><metadata
     id="metadata17"><rdf:RDF><cc:Work
         rdf:about=""><dc:format>image/svg+xml</dc:format><dc:type
           rdf:resource="http://purl.org/dc/dcmitype/StillImage" /><dc:title></dc:title></cc:Work></rdf:RDF></metadata><defs
     id="defs15" /><sodipodi:namedview
     pagecolor="#ffffff"
     bordercolor="#666666"
     borderopacity="1"
     objecttolerance="10"
     gridtolerance="10"
     guidetolerance="10"
     inkscape:pageopacity="0"
     inkscape:pageshadow="2"
     inkscape:window-width="1920"
     inkscape:window-height="1027"
     id="namedview13"
     showgrid="false"
     inkscape:zoom="2.36"
     inkscape:cx="50"
     inkscape:cy="50"
     inkscape:window-x="0"
     inkscape:window-y="24"
     inkscape:window-maximized="1"
     inkscape:current-layer="Layer_1" /><g
     id="g3"
     transform="matrix(0.76452734,0,0,0.76452734,0.05703562,0.52291797)"><g
       id="g5"><path
         d="m 8.9,65.9 c 1.2,0.1 2.5,0.2 3.9,0.3 0.1,-5.1 4.2,-9.2 9.3,-9.2 5.1,0 9.3,4.2 9.3,9.3 0,0.2 0,0.3 0,0.5 11.9,0.1 25.4,-0.1 36.6,-0.4 0,0 0,-0.1 0,-0.1 0,-5.1 4.2,-9.3 9.3,-9.3 5,0 9.1,4 9.3,8.9 1.9,0 3.2,-0.1 3.8,-0.1 5.2,0 5,0.1 5,-4.8 0,-5 -1.3,-4.2 -1.3,-4.2 0,-8.1 -0.8,-4.6 -6.5,-10.3 C 81.8,40.8 65.8,33 65.8,33 65.8,33 14.1,28.4 9,33.7 3.9,39.1 4.6,62 4.6,62 c -3.1,4.7 4.3,3.9 4.3,3.9 z"
         id="path7"
         inkscape:connector-curvature="0"
         style="fill:#010202" /><path
         d="m 22.1,58.6 c -4.3,0 -7.8,3.5 -7.8,7.8 0,0 0,0 0,0 0,4.3 3.5,7.8 7.8,7.8 4.1,0 7.5,-3.2 7.7,-7.3 0,-0.2 0,-0.3 0,-0.5 0.1,-4.4 -3.4,-7.8 -7.7,-7.8 z"
         id="path9"
         inkscape:connector-curvature="0"
         style="fill:#010202" /><path
         d="m 77.2,58.6 c -4.3,0 -7.8,3.5 -7.8,7.8 0,0 0,0.1 0,0.1 0,4.3 3.5,7.7 7.8,7.7 4.3,0 7.8,-3.5 7.8,-7.8 0,-0.1 0,-0.2 0,-0.3 -0.2,-4.2 -3.6,-7.5 -7.8,-7.5 z"
         id="path11"
         inkscape:connector-curvature="0"
         style="fill:#010202" /></g></g></svg>