<?xml version="1.0" encoding="UTF-8" standalone="no"?>
<!-- Generator: Adobe Illustrator 18.0.0, SVG Export Plug-In . SVG Version: 6.00 Build 0)  -->

<svg
   xmlns:dc="http://purl.org/dc/elements/1.1/"
   xmlns:cc="http://creativecommons.org/ns#"
   xmlns:rdf="http://www.w3.org/1999/02/22-rdf-syntax-ns#"
   xmlns:svg="http://www.w3.org/2000/svg"
   xmlns="http://www.w3.org/2000/svg"
   xmlns:sodipodi="http://sodipodi.sourceforge.net/DTD/sodipodi-0.dtd"
   xmlns:inkscape="http://www.inkscape.org/namespaces/inkscape"
   version="1.1"
   id="Layer_1"
   x="0px"
   y="0px"
   viewBox="0 0 75 75"
   enable-background="new 0 0 100 100"
   xml:space="preserve"
   inkscape:version="0.91 r13725"
   sodipodi:docname="gear.svg"
   width="75"
   height="75"
   inkscape:export-filename="/home/elio/Desktop/feature/gear.png"
   inkscape:export-xdpi="90"
   inkscape:export-ydpi="90"><metadata
     id="metadata15"><rdf:RDF><cc:Work
         rdf:about=""><dc:format>image/svg+xml</dc:format><dc:type
           rdf:resource="http://purl.org/dc/dcmitype/StillImage" /><dc:title></dc:title></cc:Work></rdf:RDF></metadata><defs
     id="defs13" /><sodipodi:namedview
     pagecolor="#ffffff"
     bordercolor="#666666"
     borderopacity="1"
     objecttolerance="10"
     gridtolerance="10"
     guidetolerance="10"
     inkscape:pageopacity="0"
     inkscape:pageshadow="2"
     inkscape:window-width="1920"
     inkscape:window-height="1027"
     id="namedview11"
     showgrid="false"
     inkscape:zoom="2.36"
     inkscape:cx="50"
     inkscape:cy="50"
     inkscape:window-x="0"
     inkscape:window-y="24"
     inkscape:window-maximized="1"
     inkscape:current-layer="Layer_1" /><g
     id="g3"
     transform="matrix(0.81292845,0,0,0.81292845,-3.3328089,-3.7326647)"><path
       d="m 12.9,39.9 c 0.5,1.5 1.1,3 1.9,4.4 l -2.3,2.8 c -0.7,0.9 -0.7,2.2 0.2,3.1 l 3.9,3.9 c 0.8,0.8 2.2,0.9 3.1,0.2 l 2.8,-2.2 c 1.5,0.8 3,1.5 4.6,1.9 l 0.4,3.6 c 0.1,1.2 1.1,2 2.3,2 l 5.5,0 c 1.2,0 2.2,-0.9 2.3,-2 L 38,54.1 c 1.7,-0.4 3.4,-1.1 5,-2 l 2.7,2.1 c 0.9,0.7 2.3,0.6 3.1,-0.2 l 3.9,-3.9 C 53.5,49.3 53.6,48 52.9,47 l -2.1,-2.7 c 0.9,-1.5 1.6,-3.1 2,-4.8 l 3.3,-0.4 C 57.3,39 58.2,38 58.2,36.8 l 0,-5.5 c 0,-1.2 -0.9,-2.2 -2.1,-2.3 l -3.2,-0.4 c -0.4,-1.7 -1.1,-3.3 -2,-4.8 l 2,-2.5 c 0.7,-0.9 0.7,-2.2 -0.2,-3.1 L 48.8,14.4 C 48,13.6 46.6,13.5 45.7,14.2 l -2.4,1.9 C 41.7,15.2 40,14.5 38.2,14 l -0.4,-3.1 c -0.1,-1.2 -1.1,-2 -2.3,-2 l -5.5,0 c -1.2,0 -2.2,0.9 -2.3,2 L 27.3,14 c -1.8,0.5 -3.6,1.2 -5.2,2.2 l -2.5,-2 c -0.9,-0.7 -2.3,-0.6 -3.1,0.2 l -3.9,3.9 c -0.8,0.8 -0.9,2.1 -0.2,3.1 l 2.1,2.7 c -0.8,1.5 -1.5,3.1 -1.9,4.8 L 9.2,29.3 C 8,29.4 7.1,30.4 7.1,31.6 l 0,5.5 c 0,1.2 0.9,2.2 2.1,2.3 l 3.7,0.5 z M 32.8,25.1 c 5,0 9.1,4.1 9.1,9 0,4.9 -4.1,9 -9.1,9 -5,0 -9.1,-4.1 -9.1,-9 0,-4.9 4.1,-9 9.1,-9 z"
       id="path5"
       inkscape:connector-curvature="0"
       style="fill:#010202" /><path
       d="m 87.3,41.2 -2.9,-2.4 c -0.9,-0.7 -2.2,-0.7 -3.1,0.1 l -1.6,1.5 C 78.3,39.8 76.9,39.3 75.4,39 L 75,36.8 C 74.8,35.7 73.7,34.9 72.5,35 l -3.8,0.3 c -1.2,0.1 -2.1,1 -2.1,2.2 l -0.1,2.2 c -1.5,0.5 -2.8,1.2 -4.1,2.1 l -1.9,-1.3 c -1,-0.6 -2.3,-0.5 -3,0.4 L 55,43.8 c -0.8,0.9 -0.7,2.2 0.1,3 l 1.7,1.8 c -0.6,1.3 -1,2.7 -1.2,4.1 l -2.4,0.5 c -1.1,0.2 -1.9,1.3 -1.8,2.4 l 0.3,3.8 c 0.1,1.2 1.1,2.1 2.2,2.1 l 2.6,0.1 c 0.5,1.2 1.1,2.4 1.8,3.5 l -1.4,2.2 c -0.6,1 -0.5,2.3 0.4,3 l 2.9,2.4 c 0.9,0.7 2.2,0.7 3.1,-0.1 l 1.9,-1.8 c 1.2,0.6 2.6,1 3.9,1.3 l 0.5,2.6 c 0.2,1.1 1.3,1.9 2.5,1.8 l 3.8,-0.3 C 77.1,76.1 78,75.2 78,74 l 0.1,-2.5 c 1.4,-0.5 2.7,-1.1 3.9,-2 l 2.1,1.4 c 1,0.6 2.3,0.5 3,-0.4 l 2.5,-2.9 c 0.8,-0.9 0.7,-2.2 -0.1,-3 l -1.7,-1.8 c 0.6,-1.3 1.1,-2.7 1.3,-4.1 l 2.3,-0.5 c 1.1,-0.2 1.9,-1.3 1.8,-2.4 L 93,52 C 92.9,50.8 91.9,49.9 90.8,49.9 L 88.5,49.8 C 88,48.5 87.4,47.2 86.6,46 l 1.3,-1.9 C 88.4,43.3 88.2,42 87.3,41.2 Z M 73,62.9 c -4.1,0.3 -7.7,-2.7 -8.1,-6.7 -0.4,-4.1 2.7,-7.6 6.8,-8 4.1,-0.3 7.7,2.7 8.1,6.7 0.4,4.1 -2.7,7.7 -6.8,8 z"
       id="path7"
       inkscape:connector-curvature="0"
       style="fill:#010202" /><path
       d="M 26.1,73 C 24.9,73.1 24,74.1 24,75.2 l 0,2.3 c 0,1.2 0.8,2.1 2,2.3 l 1.7,0.2 c 0.3,1 0.7,2 1.2,3 l -1.1,1.4 c -0.7,0.9 -0.7,2.2 0.1,3 l 1.6,1.7 c 0.8,0.8 2.1,0.9 3.1,0.2 L 34,88.2 c 1,0.6 2,1 3.1,1.3 l 0.2,1.8 c 0.1,1.2 1.1,2 2.3,2 l 2.3,0 c 1.2,0 2.2,-0.8 2.3,-2 l 0.2,-1.7 c 1.2,-0.3 2.3,-0.7 3.3,-1.3 l 1.3,1 c 0.9,0.7 2.2,0.7 3.1,-0.1 l 1.7,-1.6 c 0.8,-0.8 0.9,-2.1 0.2,-3 l -1,-1.3 c 0.6,-1 1.1,-2.1 1.4,-3.2 l 1.5,-0.2 C 57.1,79.8 58,78.8 58,77.7 l 0,-2.3 c 0,-1.2 -0.8,-2.1 -2,-2.3 l -1.5,-0.2 c -0.3,-1.1 -0.7,-2.2 -1.3,-3.2 l 0.9,-1.1 c 0.7,-0.9 0.7,-2.2 -0.1,-3 L 52.5,64 c -0.8,-0.8 -2.1,-0.9 -3.1,-0.2 l -1.1,0.9 c -1.1,-0.6 -2.2,-1.1 -3.4,-1.4 l -0.1,-1.4 c -0.1,-1.2 -1.1,-2 -2.3,-2 l -2.3,0 c -1.2,0 -2.2,0.8 -2.3,2 l -0.2,1.4 c -1.2,0.3 -2.4,0.8 -3.5,1.4 L 33,63.6 c -0.9,-0.7 -2.2,-0.7 -3.1,0.1 l -1.7,1.6 c -0.8,0.8 -0.9,2.1 -0.2,3 l 1,1.3 c -0.6,1 -1,2.1 -1.3,3.2 L 26.1,73 Z m 15.1,-2.6 c 3.4,0 6,2.8 6,6.1 0,3.3 -2.8,6 -6.1,5.9 -3.4,0 -6,-2.8 -6,-6.1 0,-3.2 2.8,-5.9 6.1,-5.9 z"
       id="path9"
       inkscape:connector-curvature="0"
       style="fill:#010202" /></g></svg>