<?xml version="1.0" encoding="UTF-8" standalone="no"?>
<!-- Generator: Adobe Illustrator 18.0.0, SVG Export Plug-In . SVG Version: 6.00 Build 0)  -->

<svg
   xmlns:dc="http://purl.org/dc/elements/1.1/"
   xmlns:cc="http://creativecommons.org/ns#"
   xmlns:rdf="http://www.w3.org/1999/02/22-rdf-syntax-ns#"
   xmlns:svg="http://www.w3.org/2000/svg"
   xmlns="http://www.w3.org/2000/svg"
   xmlns:sodipodi="http://sodipodi.sourceforge.net/DTD/sodipodi-0.dtd"
   xmlns:inkscape="http://www.inkscape.org/namespaces/inkscape"
   version="1.1"
   id="Layer_1"
   x="0px"
   y="0px"
   viewBox="0 0 75 75"
   enable-background="new 0 0 75 75"
   xml:space="preserve"
   inkscape:version="0.91 r13725"
   sodipodi:docname="$$$.svg"
   inkscape:export-filename="/home/elio/Dropbox/HackZurich/Pics/$$$.png"
   inkscape:export-xdpi="90"
   inkscape:export-ydpi="90"><metadata
     id="metadata93"><rdf:RDF><cc:Work
         rdf:about=""><dc:format>image/svg+xml</dc:format><dc:type
           rdf:resource="http://purl.org/dc/dcmitype/StillImage" /><dc:title></dc:title></cc:Work></rdf:RDF></metadata><defs
     id="defs91" /><sodipodi:namedview
     pagecolor="#ffffff"
     bordercolor="#666666"
     borderopacity="1"
     objecttolerance="10"
     gridtolerance="10"
     guidetolerance="10"
     inkscape:pageopacity="0"
     inkscape:pageshadow="2"
     inkscape:window-width="1920"
     inkscape:window-height="1027"
     id="namedview89"
     showgrid="false"
     inkscape:zoom="3.1466667"
     inkscape:cx="37.5"
     inkscape:cy="37.5"
     inkscape:window-x="0"
     inkscape:window-y="24"
     inkscape:window-maximized="1"
     inkscape:current-layer="Layer_1" /><path
     fill="#010202"
     d="M37.5,0C16.8,0,0,16.8,0,37.5S16.8,75,37.5,75S75,58.2,75,37.5S58.2,0,37.5,0z M37.5,71.6  c-18.8,0-34.1-15.3-34.1-34.1S18.7,3.4,37.5,3.4s34.1,15.3,34.1,34.1S56.3,71.6,37.5,71.6z"
     id="path55" /><path
     fill="#010202"
     d="M37.5,6.6c-17,0-30.9,13.8-30.9,30.9s13.8,30.9,30.9,30.9s30.9-13.8,30.9-30.9S54.5,6.6,37.5,6.6z   M37.5,67.3c-16.4,0-29.8-13.4-29.8-29.8S21.1,7.7,37.5,7.7s29.8,13.4,29.8,29.8S53.9,67.3,37.5,67.3z"
     id="path57" /><path
     fill="#010202"
     d="M26.3,24.1v3.1c1.6,0.7,2.7,2.3,2.7,4.2h2.9C31.9,27.9,29.5,25,26.3,24.1z"
     id="path59" /><path
     fill="#010202"
     d="M26.3,36.3v3.1c1.6,0.7,2.7,2.3,2.7,4.2c0,1.9-1.1,3.5-2.7,4.2v3.1c3.2-0.9,5.6-3.8,5.6-7.3  C31.9,40.1,29.5,37.2,26.3,36.3z"
     id="path61" /><path
     fill="#010202"
     d="M22.4,47.8c-1.6-0.7-2.7-2.3-2.7-4.2h-2.9c0,3.5,2.4,6.4,5.6,7.3V47.8z"
     id="path63" /><path
     fill="#010202"
     d="M22.4,38.7v-3.1c-1.6-0.7-2.7-2.3-2.7-4.2c0-1.9,1.1-3.5,2.7-4.2v-3.1c-3.2,0.9-5.6,3.8-5.6,7.3  S19.2,37.8,22.4,38.7z"
     id="path65" /><rect
     x="23.1"
     y="23"
     fill="#010202"
     width="2.4"
     height="28.9"
     id="rect67" /><path
     fill="#010202"
     d="M39.3,24.1v3.1c1.6,0.7,2.7,2.3,2.7,4.2h2.9C44.9,27.9,42.5,25,39.3,24.1z"
     id="path69" /><path
     fill="#010202"
     d="M39.3,36.3v3.1c1.6,0.7,2.7,2.3,2.7,4.2c0,1.9-1.1,3.5-2.7,4.2v3.1c3.2-0.9,5.6-3.8,5.6-7.3  S42.5,37.2,39.3,36.3z"
     id="path71" /><path
     fill="#010202"
     d="M35.4,47.8c-1.6-0.7-2.7-2.3-2.7-4.2h-2.9c0,3.5,2.4,6.4,5.6,7.3V47.8z"
     id="path73" /><path
     fill="#010202"
     d="M35.4,38.7v-3.1c-1.6-0.7-2.7-2.3-2.7-4.2c0-1.9,1.1-3.5,2.7-4.2v-3.1c-3.2,0.9-5.6,3.8-5.6,7.3  S32.2,37.8,35.4,38.7z"
     id="path75" /><rect
     x="36.2"
     y="23"
     fill="#010202"
     width="2.4"
     height="28.9"
     id="rect77" /><path
     fill="#010202"
     d="M52.6,24.1v3.1c1.6,0.7,2.7,2.3,2.7,4.2h2.9C58.2,27.9,55.8,25,52.6,24.1z"
     id="path79" /><path
     fill="#010202"
     d="M52.6,36.3v3.1c1.6,0.7,2.7,2.3,2.7,4.2s-1.1,3.5-2.7,4.2v3.1c3.2-0.9,5.6-3.8,5.6-7.3S55.8,37.2,52.6,36.3z  "
     id="path81" /><path
     fill="#010202"
     d="M48.7,47.8C47.1,47,46,45.4,46,43.6h-2.9c0,3.5,2.4,6.4,5.6,7.3V47.8z"
     id="path83" /><path
     fill="#010202"
     d="M48.7,38.7v-3.1c-1.6-0.7-2.7-2.3-2.7-4.2c0-1.9,1.1-3.5,2.7-4.2v-3.1c-3.2,0.9-5.6,3.8-5.6,7.3  S45.5,37.8,48.7,38.7z"
     id="path85" /><rect
     x="49.5"
     y="23"
     fill="#010202"
     width="2.4"
     height="28.9"
     id="rect87" /></svg>