<?xml version="1.0" encoding="UTF-8" standalone="no"?>
<!-- Generator: Adobe Illustrator 16.0.0, SVG Export Plug-In . SVG Version: 6.00 Build 0)  -->

<svg
   xmlns:dc="http://purl.org/dc/elements/1.1/"
   xmlns:cc="http://creativecommons.org/ns#"
   xmlns:rdf="http://www.w3.org/1999/02/22-rdf-syntax-ns#"
   xmlns:svg="http://www.w3.org/2000/svg"
   xmlns="http://www.w3.org/2000/svg"
   xmlns:sodipodi="http://sodipodi.sourceforge.net/DTD/sodipodi-0.dtd"
   xmlns:inkscape="http://www.inkscape.org/namespaces/inkscape"
   version="1.1"
   id="Capa_1"
   x="0px"
   y="0px"
   width="800pt"
   height="800pt"
   viewBox="0 0 1000 1000"
   xml:space="preserve"
   inkscape:version="0.91 r13725"
   sodipodi:docname="icons.svg"><metadata
     id="metadata41"><rdf:RDF><cc:Work
         rdf:about=""><dc:format>image/svg+xml</dc:format><dc:type
           rdf:resource="http://purl.org/dc/dcmitype/StillImage" /><dc:title /></cc:Work></rdf:RDF></metadata><defs
     id="defs39" /><sodipodi:namedview
     pagecolor="#ffffff"
     bordercolor="#666666"
     borderopacity="1"
     objecttolerance="10"
     gridtolerance="10"
     guidetolerance="10"
     inkscape:pageopacity="0"
     inkscape:pageshadow="2"
     inkscape:window-width="1920"
     inkscape:window-height="1027"
     id="namedview37"
     showgrid="false"
     showguides="true"
     inkscape:guide-bbox="true"
     units="pt"
     inkscape:document-units="pt"
     inkscape:zoom="2.3401092"
     inkscape:cx="52.533721"
     inkscape:cy="136.22432"
     inkscape:window-x="0"
     inkscape:window-y="24"
     inkscape:window-maximized="1"
     inkscape:current-layer="Capa_1"><sodipodi:guide
       position="124.78051,141.01907"
       orientation="1,0"
       id="guide4229" /><sodipodi:guide
       position="110.25127,124.78051"
       orientation="0,1"
       id="guide4231" /><sodipodi:guide
       position="250.41567,319.64322"
       orientation="1,0"
       id="guide4233" /><sodipodi:guide
       position="375.19618,312.80593"
       orientation="1,0"
       id="guide4235" /></sodipodi:namedview><g
     id="feature_efficient"
     transform="translate(11.110593,888.0394)"
     inkscape:label="#g3"><path
       d="m 45.173,38.293 0,-8.12 8.119,0 c 1.543,0 2.799,-1.253 2.799,-2.802 l 0,-13.647 c 0,-1.549 -1.256,-2.802 -2.799,-2.802 l -8.119,0 0,-8.119 C 45.173,1.256 43.917,0 42.372,0 L 28.716,0 c -1.547,0 -2.802,1.256 -2.802,2.803 l 0,8.119 -8.114,0 c -1.541,0 -2.803,1.253 -2.803,2.802 l 0,13.647 c 0,1.548 1.262,2.802 2.803,2.802 l 8.115,0 0,8.12 c 0,1.546 1.255,2.802 2.802,2.802 l 13.655,0 c 1.557,0 2.801,-1.256 2.801,-2.802 z m -5.603,-10.921 0,8.12 -8.052,0 0,-8.12 c 0,-1.546 -1.256,-2.801 -2.802,-2.801 l -8.115,0 0,-8.045 8.115,0 c 1.546,0 2.802,-1.256 2.802,-2.802 l 0,-8.12 8.052,0 0,8.12 c 0,1.546 1.261,2.802 2.802,2.802 l 8.119,0 0,8.045 -8.119,0 c -1.541,0 -2.802,1.254 -2.802,2.801 z m 44.09,-2.425 c -0.118,-0.936 -0.688,-1.753 -1.543,-2.175 -0.843,-0.418 -1.85,-0.379 -2.66,0.106 -1.619,0.958 -39.674,23.606 -46.346,37.149 -7.045,14.326 -1.695,31.409 11.922,38.118 3.653,1.789 7.587,2.704 11.661,2.704 10.735,0 20.866,-6.485 25.797,-16.521 6.668,-13.547 1.4,-57.515 1.169,-59.381 z m -6.189,56.892 c -4.011,8.143 -12.163,13.4 -20.777,13.4 -2.266,0 -4.432,-0.481 -6.54,-1.187 l 2.633,-5.347 13.68,-3.009 c 1.517,-0.334 2.462,-1.828 2.14,-3.338 -0.322,-1.517 -1.812,-2.458 -3.344,-2.141 l -9.311,2.048 3.27,-6.666 13.681,-3.004 c 1.521,-0.334 2.468,-1.827 2.134,-3.343 -0.328,-1.512 -1.795,-2.464 -3.336,-2.135 l -9.305,2.047 4.772,-9.708 c 0.689,-1.384 0.12,-3.063 -1.271,-3.753 -1.388,-0.663 -3.068,-0.104 -3.753,1.287 l -4.958,10.07 -3.855,-8.909 c -0.615,-1.418 -2.275,-2.068 -3.688,-1.455 -1.421,0.606 -2.064,2.26 -1.454,3.683 l 5.737,13.285 -3.188,6.49 -3.855,-8.909 c -0.619,-1.416 -2.27,-2.065 -3.682,-1.454 -1.424,0.612 -2.074,2.266 -1.462,3.688 l 5.743,13.285 -2.383,4.837 C 36.111,85.527 32.88,73.122 38.111,62.507 42.544,53.516 66.127,37.636 78.549,29.956 c 1.527,14.529 3.343,42.893 -1.078,51.883 z"
       id="path5"
       inkscape:connector-curvature="0" /></g><g
     transform="matrix(0.17277849,0,0,0.17277849,136.43714,879.61156)"
     id="feature_sedane"
     inkscape:label="#g4170"><path
       inkscape:connector-curvature="0"
       d="m 589.333,276.033 c -11.234,-3.756 -89.378,-20.834 -89.378,-20.834 0,0 -144.86,-82.375 -162.245,-82.375 -17.385,0 -136.639,0.053 -136.639,0.053 -29.137,0 -53.487,22.203 -81.68,47.909 -13.287,12.112 -27.953,25.442 -44.13,37.299 l -60.249,8.011 C 6.306,268.872 0,277.018 0,286.643 l 0,69.03 c 0,11.913 9.656,21.571 21.57,21.571 l 41.401,0 c 3.007,34.65 32.153,61.932 67.57,61.932 35.415,0 64.563,-27.283 67.57,-61.931 l 197.687,0 c 3.007,34.65 32.153,61.931 67.57,61.931 35.417,0 64.563,-27.283 67.57,-61.931 l 34.013,0 c 26.95,0 40.119,-11.64 43.426,-22.566 8.362,-27.649 2.347,-71.494 -19.044,-78.646 z M 130.541,406.48 c -19.38,0 -35.148,-15.766 -35.148,-35.146 0,-19.38 15.766,-35.148 35.148,-35.148 19.38,0 35.146,15.766 35.146,35.148 10e-4,19.38 -15.766,35.146 -35.146,35.146 z m 130.467,-151.279 -117.874,0 c 8.526,-6.736 16.409,-13.886 23.671,-20.505 19.086,-17.402 35.57,-32.432 55.294,-32.432 0,0 17.85,-0.008 38.91,-0.017 l 0,52.954 z m 28.703,-52.965 c 14.588,-0.005 27.592,-0.009 34.116,-0.009 16.245,0 82.135,38.264 106.864,52.975 l -140.98,0 0,-52.966 0,0 z M 463.367,406.48 c -19.38,0 -35.146,-15.766 -35.146,-35.146 0,-19.38 15.766,-35.148 35.146,-35.148 19.38,0 35.148,15.766 35.148,35.148 0,19.38 -15.768,35.146 -35.148,35.146 z"
       id="path4172" /></g></svg>