<?xml version="1.0" encoding="UTF-8" standalone="no"?>
<!-- Generator: Adobe Illustrator 18.0.0, SVG Export Plug-In . SVG Version: 6.00 Build 0)  -->

<svg
   xmlns:dc="http://purl.org/dc/elements/1.1/"
   xmlns:cc="http://creativecommons.org/ns#"
   xmlns:rdf="http://www.w3.org/1999/02/22-rdf-syntax-ns#"
   xmlns:svg="http://www.w3.org/2000/svg"
   xmlns="http://www.w3.org/2000/svg"
   xmlns:sodipodi="http://sodipodi.sourceforge.net/DTD/sodipodi-0.dtd"
   xmlns:inkscape="http://www.inkscape.org/namespaces/inkscape"
   version="1.1"
   id="Layer_1"
   x="0px"
   y="0px"
   viewBox="0 0 75 75"
   enable-background="new 0 0 100 100"
   xml:space="preserve"
   inkscape:version="0.91 r13725"
   sodipodi:docname="offroad.svg"
   width="75"
   height="75"
   inkscape:export-filename="/home/elio/Desktop/feature/offroad.png"
   inkscape:export-xdpi="90"
   inkscape:export-ydpi="90"><metadata
     id="metadata13"><rdf:RDF><cc:Work
         rdf:about=""><dc:format>image/svg+xml</dc:format><dc:type
           rdf:resource="http://purl.org/dc/dcmitype/StillImage" /><dc:title></dc:title></cc:Work></rdf:RDF></metadata><defs
     id="defs11" /><sodipodi:namedview
     pagecolor="#ffffff"
     bordercolor="#666666"
     borderopacity="1"
     objecttolerance="10"
     gridtolerance="10"
     guidetolerance="10"
     inkscape:pageopacity="0"
     inkscape:pageshadow="2"
     inkscape:window-width="1920"
     inkscape:window-height="1027"
     id="namedview9"
     showgrid="false"
     inkscape:zoom="2.36"
     inkscape:cx="52.330508"
     inkscape:cy="50"
     inkscape:window-x="0"
     inkscape:window-y="24"
     inkscape:window-maximized="1"
     inkscape:current-layer="Layer_1" /><g
     id="g3"
     transform="matrix(0.74985833,0,0,0.74985833,-0.14706096,0.46524392)"><g
       id="g5"><path
         d="m 95.1,52.1 c -0.8,0 -1.7,-0.7 -2.1,-1.5 L 91.5,47.3 C 91.1,46.5 90,45.7 89.1,45.6 L 69,43.7 C 68.1,43.6 66.9,42.9 66.3,42.2 L 59,31.9 c -0.5,-0.8 -1.7,-1.4 -2.7,-1.4 l -12.5,0 c -0.9,0 -2.1,-0.4 -2.5,-1 -0.5,-0.5 -1.6,-1 -2.5,-1 l -23,0 c -0.9,0 -1.9,0.7 -2.2,1.6 l -2.3,6.7 C 10.8,35.9 9.2,35 7.2,35 l -0.4,0 c -2.2,0 -4,1.8 -4,4 l 0,10.5 c 0,2.2 0.8,3.9 1.8,4 -0.3,0.6 -0.5,1.3 -0.5,1.9 l 0,2.4 c 0,0.9 0.8,1.7 1.7,1.7 l 5.2,0 c 0.5,0 1.1,0 1.7,0.1 -0.3,1 -0.5,2.1 -0.5,3.2 0,6.6 5.3,11.9 11.9,11.9 6.6,0 11.9,-5.3 11.9,-11.9 0,0 0,0 0,0 0.3,0 0.6,0 0.8,0 l 31.2,0 c 0.1,0 0.2,0 0.4,0 0,0 0,0 0,0 0,6.6 5.3,11.9 11.9,11.9 6.6,0 11.9,-5.3 11.9,-11.9 0,-1 -0.1,-2 -0.4,-2.9 l 0.7,0 c 0.9,0 1.9,-0.7 2.2,-1.6 l 1.4,-4.7 c 0.2,-0.8 -0.2,-1.5 -1,-1.5 z M 36,41.9 l -23,0 2.6,-9.3 20.4,0 0,9.3 0,0 z m 5.8,0.7 0,-8.9 14.6,0 6.5,8.9 -21.1,0 z"
         id="path7"
         inkscape:connector-curvature="0"
         style="fill:#010202" /></g></g></svg>