<?xml version="1.0" encoding="UTF-8" standalone="no"?>
<!-- Generator: Adobe Illustrator 18.0.0, SVG Export Plug-In . SVG Version: 6.00 Build 0)  -->

<svg
   xmlns:dc="http://purl.org/dc/elements/1.1/"
   xmlns:cc="http://creativecommons.org/ns#"
   xmlns:rdf="http://www.w3.org/1999/02/22-rdf-syntax-ns#"
   xmlns:svg="http://www.w3.org/2000/svg"
   xmlns="http://www.w3.org/2000/svg"
   xmlns:sodipodi="http://sodipodi.sourceforge.net/DTD/sodipodi-0.dtd"
   xmlns:inkscape="http://www.inkscape.org/namespaces/inkscape"
   version="1.1"
   id="Layer_1"
   x="0px"
   y="0px"
   viewBox="0 0 75 75"
   enable-background="new 0 0 100 100"
   xml:space="preserve"
   inkscape:version="0.91 r13725"
   sodipodi:docname="regular.svg"
   width="75"
   height="75"
   inkscape:export-filename="/home/elio/Desktop/feature/regular.png"
   inkscape:export-xdpi="90"
   inkscape:export-ydpi="90"><metadata
     id="metadata11"><rdf:RDF><cc:Work
         rdf:about=""><dc:format>image/svg+xml</dc:format><dc:type
           rdf:resource="http://purl.org/dc/dcmitype/StillImage" /><dc:title></dc:title></cc:Work></rdf:RDF></metadata><defs
     id="defs9" /><sodipodi:namedview
     pagecolor="#ffffff"
     bordercolor="#666666"
     borderopacity="1"
     objecttolerance="10"
     gridtolerance="10"
     guidetolerance="10"
     inkscape:pageopacity="0"
     inkscape:pageshadow="2"
     inkscape:window-width="1920"
     inkscape:window-height="1027"
     id="namedview7"
     showgrid="false"
     inkscape:zoom="2.36"
     inkscape:cx="-24.576271"
     inkscape:cy="50"
     inkscape:window-x="0"
     inkscape:window-y="24"
     inkscape:window-maximized="1"
     inkscape:current-layer="Layer_1" /><g
     id="g3"
     transform="matrix(0.74281324,0,0,0.74281324,1.1438518,2.2222329)"><path
       d="M 93.6,44.6 C 91.9,44 79.8,41.4 79.8,41.4 c 0,0 -22.3,-12.7 -25,-12.7 -2.7,0 -21,0 -21,0 -4.5,0 -8.2,3.4 -12.6,7.4 -2,1.9 -4.3,3.9 -6.8,5.7 L 5.1,43 c -1.3,0.4 -2.3,1.7 -2.3,3.2 l 0,10.6 c 0,1.8 1.5,3.3 3.3,3.3 l 6.4,0 c 0.5,5.3 5,9.5 10.4,9.5 5.5,0 9.9,-4.2 10.4,-9.5 l 30.4,0 c 0.5,5.3 5,9.5 10.4,9.5 5.4,0 9.9,-4.2 10.4,-9.5 l 5.2,0 c 4.1,0 6.2,-1.8 6.7,-3.5 1.4,-4.1 0.5,-10.9 -2.8,-12 z M 23,64.7 c -3,0 -5.4,-2.4 -5.4,-5.4 0,-3 2.4,-5.4 5.4,-5.4 3,0 5.4,2.4 5.4,5.4 0,3 -2.4,5.4 -5.4,5.4 z m 20.1,-23.3 -18.2,0 c 1.3,-1 2.5,-2.1 3.6,-3.2 2.9,-2.7 5.5,-5 8.5,-5 0,0 2.7,0 6,0 l 0.1,8.2 0,0 z m 4.4,-8.1 c 2.2,0 4.2,0 5.3,0 2.5,0 12.6,5.9 16.5,8.2 l -21.8,0 0,-8.2 0,0 z m 26.7,31.4 c -3,0 -5.4,-2.4 -5.4,-5.4 0,-3 2.4,-5.4 5.4,-5.4 3,0 5.4,2.4 5.4,5.4 0,3 -2.4,5.4 -5.4,5.4 z"
       id="path5"
       inkscape:connector-curvature="0"
       style="fill:#010202" /></g></svg>