<?xml version="1.0" encoding="UTF-8" standalone="no"?>
<!-- Generator: Adobe Illustrator 16.0.0, SVG Export Plug-In . SVG Version: 6.00 Build 0)  -->

<svg
   xmlns:dc="http://purl.org/dc/elements/1.1/"
   xmlns:cc="http://creativecommons.org/ns#"
   xmlns:rdf="http://www.w3.org/1999/02/22-rdf-syntax-ns#"
   xmlns:svg="http://www.w3.org/2000/svg"
   xmlns="http://www.w3.org/2000/svg"
   xmlns:sodipodi="http://sodipodi.sourceforge.net/DTD/sodipodi-0.dtd"
   xmlns:inkscape="http://www.inkscape.org/namespaces/inkscape"
   version="1.1"
   id="Capa_1"
   x="0px"
   y="0px"
   width="100pt"
   height="100pt"
   viewBox="0 0 125 125"
   xml:space="preserve"
   inkscape:version="0.91 r13725"
   sodipodi:docname="sedane.svg"><metadata
     id="metadata41"><rdf:RDF><cc:Work
         rdf:about=""><dc:format>image/svg+xml</dc:format><dc:type
           rdf:resource="http://purl.org/dc/dcmitype/StillImage" /><dc:title /></cc:Work></rdf:RDF></metadata><defs
     id="defs39" /><sodipodi:namedview
     pagecolor="#ffffff"
     bordercolor="#666666"
     borderopacity="1"
     objecttolerance="10"
     gridtolerance="10"
     guidetolerance="10"
     inkscape:pageopacity="0"
     inkscape:pageshadow="2"
     inkscape:window-width="1920"
     inkscape:window-height="1027"
     id="namedview37"
     showgrid="false"
     showguides="true"
     inkscape:guide-bbox="true"
     units="pt"
     inkscape:document-units="pt"
     inkscape:zoom="1.1700546"
     inkscape:cx="-4.4261008"
     inkscape:cy="239.93057"
     inkscape:window-x="0"
     inkscape:window-y="24"
     inkscape:window-maximized="1"
     inkscape:current-layer="Capa_1"><sodipodi:guide
       position="124.78051,141.01907"
       orientation="1,0"
       id="guide4229" /><sodipodi:guide
       position="110.25127,124.78051"
       orientation="0,1"
       id="guide4231" /></sodipodi:namedview><g
     id="g7"
     transform="translate(0,24.149985)" /><g
     id="g9"
     transform="translate(0,24.149985)" /><g
     id="g11"
     transform="translate(0,24.149985)" /><g
     id="g13"
     transform="translate(0,24.149985)" /><g
     id="g15"
     transform="translate(0,24.149985)" /><g
     id="g17"
     transform="translate(0,24.149985)" /><g
     id="g19"
     transform="translate(0,24.149985)" /><g
     id="g21"
     transform="translate(0,24.149985)" /><g
     id="g23"
     transform="translate(0,24.149985)" /><g
     id="g25"
     transform="translate(0,24.149985)" /><g
     id="g27"
     transform="translate(0,24.149985)" /><g
     id="g29"
     transform="translate(0,24.149985)" /><g
     id="g31"
     transform="translate(0,24.149985)" /><g
     id="g33"
     transform="translate(0,24.149985)" /><g
     id="g35"
     transform="translate(0,24.149985)" /><path
     id="feature_sedane"
     d="m 111.19376,53.31347 c -1.94099,-0.648956 -15.442595,-3.599667 -15.442595,-3.599667 0,0 -25.028692,-14.232629 -28.032446,-14.232629 -3.003754,0 -23.60828,0.0092 -23.60828,0.0092 -5.034247,0 -9.241403,3.836201 -14.112547,8.277644 -2.295708,2.092693 -4.829677,4.395831 -7.624715,6.444465 L 11.963446,51.59657 c -1.504209,0.479633 -2.5937506,1.887086 -2.5937506,3.550079 l 0,11.9269 c 0,2.05831 1.6683486,3.727004 3.7268316,3.727004 l 7.153203,0 c 0.519545,5.986775 5.555346,10.700518 11.674642,10.700518 6.11895,0 11.155098,-4.713916 11.674643,-10.700345 l 34.156061,0 c 0.519545,5.986775 5.555347,10.700345 11.674643,10.700345 6.119296,0 11.155101,-4.713916 11.674641,-10.700345 l 5.87672,0 c 4.65638,0 6.9317,-2.011141 7.50307,-3.898919 1.44478,-4.777153 0.40552,-12.352626 -3.29039,-13.588337 z M 31.924372,75.851905 c -3.348447,0 -6.072818,-2.724025 -6.072818,-6.072472 0,-3.348448 2.724026,-6.072819 6.072818,-6.072819 3.348447,0 6.072473,2.724026 6.072473,6.072819 1.73e-4,3.348447 -2.724026,6.072472 -6.072473,6.072472 z m 22.541892,-26.137757 -20.366092,0 c 1.473109,-1.163836 2.835122,-2.399202 4.089839,-3.542823 3.297651,-3.006691 6.145731,-5.603552 9.553614,-5.603552 0,0 3.084096,-0.0014 6.722811,-0.0029 l 0,9.149312 z m 4.959261,-9.151213 c 2.520492,-8.63e-4 4.767304,-0.0016 5.89451,-0.0016 2.806787,0 14.191162,6.611197 18.463801,9.152941 l -24.358311,0 0,-9.151386 0,0 z m 30.004021,35.28897 c -3.348447,0 -6.072473,-2.724025 -6.072473,-6.072472 0,-3.348448 2.724026,-6.072819 6.072473,-6.072819 3.348447,0 6.072818,2.724026 6.072818,6.072819 0,3.348447 -2.724371,6.072472 -6.072818,6.072472 z"
     inkscape:connector-curvature="0"
     inkscape:label="#path4172" /><g
     id="g4174"
     transform="matrix(0.17277849,0,0,0.17277849,9.3696954,5.6209047)" /><g
     id="g4176"
     transform="matrix(0.17277849,0,0,0.17277849,9.3696954,5.6209047)" /><g
     id="g4178"
     transform="matrix(0.17277849,0,0,0.17277849,9.3696954,5.6209047)" /><g
     id="g4180"
     transform="matrix(0.17277849,0,0,0.17277849,9.3696954,5.6209047)" /><g
     id="g4182"
     transform="matrix(0.17277849,0,0,0.17277849,9.3696954,5.6209047)" /><g
     id="g4184"
     transform="matrix(0.17277849,0,0,0.17277849,9.3696954,5.6209047)" /><g
     id="g4186"
     transform="matrix(0.17277849,0,0,0.17277849,9.3696954,5.6209047)" /><g
     id="g4188"
     transform="matrix(0.17277849,0,0,0.17277849,9.3696954,5.6209047)" /><g
     id="g4190"
     transform="matrix(0.17277849,0,0,0.17277849,9.3696954,5.6209047)" /><g
     id="g4192"
     transform="matrix(0.17277849,0,0,0.17277849,9.3696954,5.6209047)" /><g
     id="g4194"
     transform="matrix(0.17277849,0,0,0.17277849,9.3696954,5.6209047)" /><g
     id="g4196"
     transform="matrix(0.17277849,0,0,0.17277849,9.3696954,5.6209047)" /><g
     id="g4198"
     transform="matrix(0.17277849,0,0,0.17277849,9.3696954,5.6209047)" /><g
     id="g4200"
     transform="matrix(0.17277849,0,0,0.17277849,9.3696954,5.6209047)" /><g
     id="g4202"
     transform="matrix(0.17277849,0,0,0.17277849,9.3696954,5.6209047)" /></svg>