<?xml version="1.0" encoding="UTF-8" standalone="no"?>
<!-- Generator: Adobe Illustrator 18.0.0, SVG Export Plug-In . SVG Version: 6.00 Build 0)  -->

<svg
   xmlns:dc="http://purl.org/dc/elements/1.1/"
   xmlns:cc="http://creativecommons.org/ns#"
   xmlns:rdf="http://www.w3.org/1999/02/22-rdf-syntax-ns#"
   xmlns:svg="http://www.w3.org/2000/svg"
   xmlns="http://www.w3.org/2000/svg"
   xmlns:sodipodi="http://sodipodi.sourceforge.net/DTD/sodipodi-0.dtd"
   xmlns:inkscape="http://www.inkscape.org/namespaces/inkscape"
   version="1.1"
   id="Layer_1"
   x="0px"
   y="0px"
   viewBox="0 0 75 75"
   enable-background="new 0 0 100 100"
   xml:space="preserve"
   inkscape:version="0.91 r13725"
   sodipodi:docname="sport.svg"
   width="75"
   height="75"
   inkscape:export-filename="/home/elio/Desktop/feature/sport.png"
   inkscape:export-xdpi="90"
   inkscape:export-ydpi="90"><metadata
     id="metadata19"><rdf:RDF><cc:Work
         rdf:about=""><dc:format>image/svg+xml</dc:format><dc:type
           rdf:resource="http://purl.org/dc/dcmitype/StillImage" /><dc:title></dc:title></cc:Work></rdf:RDF></metadata><defs
     id="defs17" /><sodipodi:namedview
     pagecolor="#ffffff"
     bordercolor="#666666"
     borderopacity="1"
     objecttolerance="10"
     gridtolerance="10"
     guidetolerance="10"
     inkscape:pageopacity="0"
     inkscape:pageshadow="2"
     inkscape:window-width="1920"
     inkscape:window-height="1027"
     id="namedview15"
     showgrid="false"
     inkscape:zoom="2.36"
     inkscape:cx="50"
     inkscape:cy="50"
     inkscape:window-x="0"
     inkscape:window-y="24"
     inkscape:window-maximized="1"
     inkscape:current-layer="Layer_1" /><g
     id="g3"
     transform="matrix(0.73430928,0,0,0.73430928,1.3788391,0.79623464)"><g
       id="g5"><g
         id="g7"><path
           d="M 96.9,53 C 95.8,49.3 87.3,46 85.6,45.4 83.8,44.7 79.1,43.1 74.7,42.6 66.9,38.7 58.1,36 57.9,36 c -0.1,0 -3.6,-0.8 -13.3,-0.8 -6.5,0 -12.8,1.3 -18.3,2.4 -2.9,0.6 -5.7,1.1 -8.1,1.4 -7,0.9 -12.3,1 -12.3,1 C 5.5,40 5.1,40.3 5,40.7 4.9,41 2,48.3 2,51.6 c 0,3.6 5,7.2 5.6,7.6 0.2,0.1 0.4,0.2 0.6,0.2 l 2.1,0 c 1.6,2.5 4.3,4.2 7.4,4.2 3.1,0 5.9,-1.7 7.4,-4.2 l 43.1,0 c 1.5,2.5 4.2,4.2 7.3,4.2 3.1,0 5.8,-1.7 7.3,-4.2 l 13.2,0 c 0.5,0 0.9,-0.3 1,-0.7 C 97,58.6 97.8,56 96.9,53 Z M 71.4,43.3 c -1.8,0.4 -3.8,0.6 -6,0.7 l 0.1,-0.1 C 65.6,43.6 65.7,43.3 65.6,43 65.5,42.7 65.3,42.5 65,42.4 l -3.1,-1.1 c -0.3,-0.1 -0.6,-0.1 -0.9,0.1 -0.3,0.1 -0.4,0.4 -0.5,0.7 L 60,44 C 54.7,43.8 48.8,43.1 42.3,42.2 l 2.8,-5 c 8.9,0 12.2,0.7 12.2,0.7 0.2,0.1 7.1,2.2 14.1,5.4 z M 26.7,39.7 c 4.9,-1 10.4,-2.1 16.1,-2.3 L 40.2,42 C 39,41.8 37.9,41.7 36.7,41.5 33.1,41 29.4,40.5 25.6,40 c 0.3,-0.2 0.7,-0.3 1.1,-0.3 z m -9.1,21.8 c -3.7,0 -6.7,-3 -6.7,-6.7 0,-3.7 3,-6.7 6.7,-6.7 3.7,0 6.7,3 6.7,6.7 0.1,3.6 -3,6.7 -6.7,6.7 z m 57.9,0 C 71.9,61.5 69,58.6 69,55 c 0,-3.6 2.9,-6.5 6.5,-6.5 3.6,0 6.5,2.9 6.5,6.5 -0.1,3.6 -3,6.5 -6.5,6.5 z"
           id="path9"
           inkscape:connector-curvature="0"
           style="fill:#010202" /><circle
           cx="17.6"
           cy="54.700001"
           r="4.3000002"
           id="circle11"
           style="fill:#010202" /><circle
           cx="75.5"
           cy="55"
           r="4.3000002"
           id="circle13"
           style="fill:#010202" /></g></g></g></svg>