<?xml version="1.0" encoding="UTF-8" standalone="no"?>
<!-- Generator: Adobe Illustrator 18.1.1, SVG Export Plug-In . SVG Version: 6.00 Build 0)  -->

<svg
   xmlns:dc="http://purl.org/dc/elements/1.1/"
   xmlns:cc="http://creativecommons.org/ns#"
   xmlns:rdf="http://www.w3.org/1999/02/22-rdf-syntax-ns#"
   xmlns:svg="http://www.w3.org/2000/svg"
   xmlns="http://www.w3.org/2000/svg"
   xmlns:sodipodi="http://sodipodi.sourceforge.net/DTD/sodipodi-0.dtd"
   xmlns:inkscape="http://www.inkscape.org/namespaces/inkscape"
   version="1.1"
   id="Capa_1"
   x="0px"
   y="0px"
   viewBox="0 0 75.000003 75.000003"
   xml:space="preserve"
   inkscape:version="0.91 r13725"
   sodipodi:docname="type.svg"
   width="75"
   height="75"
   inkscape:export-filename="/home/elio/Desktop/feature/type.png"
   inkscape:export-xdpi="90"
   inkscape:export-ydpi="90"><metadata
     id="metadata41"><rdf:RDF><cc:Work
         rdf:about=""><dc:format>image/svg+xml</dc:format><dc:type
           rdf:resource="http://purl.org/dc/dcmitype/StillImage" /><dc:title></dc:title></cc:Work></rdf:RDF></metadata><defs
     id="defs39" /><sodipodi:namedview
     pagecolor="#ffffff"
     bordercolor="#666666"
     borderopacity="1"
     objecttolerance="10"
     gridtolerance="10"
     guidetolerance="10"
     inkscape:pageopacity="0"
     inkscape:pageshadow="2"
     inkscape:window-width="1920"
     inkscape:window-height="1027"
     id="namedview37"
     showgrid="false"
     inkscape:zoom="4.3627957"
     inkscape:cx="85.107848"
     inkscape:cy="76.697316"
     inkscape:window-x="0"
     inkscape:window-y="24"
     inkscape:window-maximized="1"
     inkscape:current-layer="Capa_1" /><g
     id="g3"
     transform="matrix(0.114379,0,0,0.114379,2.7505299,2.5340243)"><path
       d="m 589.333,276.033 c -11.234,-3.756 -89.378,-20.834 -89.378,-20.834 0,0 -144.86,-82.375 -162.245,-82.375 -17.385,0 -136.639,0.053 -136.639,0.053 -29.137,0 -53.487,22.203 -81.68,47.909 -13.287,12.112 -27.953,25.442 -44.13,37.299 l -60.249,8.011 C 6.306,268.872 0,277.018 0,286.643 l 0,69.03 c 0,11.913 9.656,21.571 21.57,21.571 l 41.401,0 c 3.007,34.65 32.153,61.932 67.57,61.932 35.415,0 64.563,-27.283 67.57,-61.931 l 197.687,0 c 3.007,34.65 32.153,61.931 67.57,61.931 35.417,0 64.563,-27.283 67.57,-61.931 l 34.013,0 c 26.95,0 40.119,-11.64 43.426,-22.566 8.362,-27.649 2.347,-71.494 -19.044,-78.646 z M 130.541,406.48 c -19.38,0 -35.148,-15.766 -35.148,-35.146 0,-19.38 15.766,-35.148 35.148,-35.148 19.38,0 35.146,15.766 35.146,35.148 10e-4,19.38 -15.766,35.146 -35.146,35.146 z m 130.467,-151.279 -117.874,0 c 8.526,-6.736 16.409,-13.886 23.671,-20.505 19.086,-17.402 35.57,-32.432 55.294,-32.432 0,0 17.85,-0.008 38.91,-0.017 l 0,52.954 z m 28.703,-52.965 c 14.588,-0.005 27.592,-0.009 34.116,-0.009 16.245,0 82.135,38.264 106.864,52.975 l -140.98,0 0,-52.966 0,0 z M 463.367,406.48 c -19.38,0 -35.146,-15.766 -35.146,-35.146 0,-19.38 15.766,-35.148 35.146,-35.148 19.38,0 35.148,15.766 35.148,35.148 0,19.38 -15.768,35.146 -35.148,35.146 z"
       id="path5"
       inkscape:connector-curvature="0" /></g><g
     id="g7"
     transform="translate(0,-537.00098)" /><g
     id="g9"
     transform="translate(0,-537.00098)" /><g
     id="g11"
     transform="translate(0,-537.00098)" /><g
     id="g13"
     transform="translate(0,-537.00098)" /><g
     id="g15"
     transform="translate(0,-537.00098)" /><g
     id="g17"
     transform="translate(0,-537.00098)" /><g
     id="g19"
     transform="translate(0,-537.00098)" /><g
     id="g21"
     transform="translate(0,-537.00098)" /><g
     id="g23"
     transform="translate(0,-537.00098)" /><g
     id="g25"
     transform="translate(0,-537.00098)" /><g
     id="g27"
     transform="translate(0,-537.00098)" /><g
     id="g29"
     transform="translate(0,-537.00098)" /><g
     id="g31"
     transform="translate(0,-537.00098)" /><g
     id="g33"
     transform="translate(0,-537.00098)" /><g
     id="g35"
     transform="translate(0,-537.00098)" /></svg>