<?xml version="1.0" encoding="UTF-8" standalone="no"?>
<!-- Created with Inkscape (http://www.inkscape.org/) -->

<svg
   xmlns:dc="http://purl.org/dc/elements/1.1/"
   xmlns:cc="http://creativecommons.org/ns#"
   xmlns:rdf="http://www.w3.org/1999/02/22-rdf-syntax-ns#"
   xmlns:svg="http://www.w3.org/2000/svg"
   xmlns="http://www.w3.org/2000/svg"
   xmlns:xlink="http://www.w3.org/1999/xlink"
   xmlns:sodipodi="http://sodipodi.sourceforge.net/DTD/sodipodi-0.dtd"
   xmlns:inkscape="http://www.inkscape.org/namespaces/inkscape"
   version="1.0"
   width="75"
   height="75"
   id="svg2408"
   sodipodi:version="0.32"
   inkscape:version="0.91 r13725"
   sodipodi:docname="vw.svg"
   inkscape:output_extension="org.inkscape.output.svg.inkscape"
   inkscape:export-filename="/home/elio/Desktop/feature/vw.png"
   inkscape:export-xdpi="90.200371"
   inkscape:export-ydpi="90.200371">
  <metadata
     id="metadata40">
    <rdf:RDF>
      <cc:Work
         rdf:about="">
        <dc:format>image/svg+xml</dc:format>
        <dc:type
           rdf:resource="http://purl.org/dc/dcmitype/StillImage" />
        <dc:title></dc:title>
      </cc:Work>
    </rdf:RDF>
  </metadata>
  <sodipodi:namedview
     inkscape:window-height="1027"
     inkscape:window-width="1918"
     inkscape:pageshadow="2"
     inkscape:pageopacity="0.0"
     guidetolerance="10.0"
     gridtolerance="10.0"
     objecttolerance="10.0"
     borderopacity="1.0"
     bordercolor="#666666"
     pagecolor="#ffffff"
     id="base"
     showgrid="false"
     inkscape:zoom="4.074916"
     inkscape:cx="-4.6360508"
     inkscape:cy="8.607132"
     inkscape:window-x="0"
     inkscape:window-y="24"
     inkscape:current-layer="svg2408"
     fit-margin-top="0"
     fit-margin-left="0"
     fit-margin-right="0"
     fit-margin-bottom="0"
     inkscape:window-maximized="0" />
  <defs
     id="defs2410">
    <inkscape:perspective
       sodipodi:type="inkscape:persp3d"
       inkscape:vp_x="0 : 800 : 1"
       inkscape:vp_y="0 : 1000 : 0"
       inkscape:vp_z="1600 : 800 : 1"
       inkscape:persp3d-origin="800 : 533.33333 : 1"
       id="perspective42" />
    <linearGradient
       id="linearGradient3219">
      <stop
         id="stop3221"
         style="stop-color:#ffffff;stop-opacity:1"
         offset="0" />
      <stop
         id="stop3227"
         style="stop-color:#ffffff;stop-opacity:1"
         offset="0.5" />
      <stop
         id="stop3223"
         style="stop-color:#989b9e;stop-opacity:1"
         offset="1" />
    </linearGradient>
    <linearGradient
       x1="176.53017"
       y1="265.2677"
       x2="404.60199"
       y2="589.9801"
       id="linearGradient3324"
       xlink:href="#linearGradient3219"
       gradientUnits="userSpaceOnUse" />
    <filter
       id="filter3293">
      <feGaussianBlur
         id="feGaussianBlur3295"
         stdDeviation="5.1378907"
         inkscape:collect="always" />
    </filter>
    <radialGradient
       cx="243.66701"
       cy="294.6665"
       r="307.66959"
       id="SVGID_2_"
       gradientUnits="userSpaceOnUse">
      <stop
         id="stop18"
         style="stop-color:#209bd3;stop-opacity:1"
         offset="0" />
      <stop
         id="stop20"
         style="stop-color:#136194;stop-opacity:1"
         offset="0.54570001" />
      <stop
         id="stop22"
         style="stop-color:#0a3b6c;stop-opacity:1"
         offset="1" />
    </radialGradient>
    <radialGradient
       cx="243.66701"
       cy="294.6665"
       r="307.66959"
       id="radialGradient3322"
       xlink:href="#SVGID_2_"
       gradientUnits="userSpaceOnUse" />
    <linearGradient
       x1="157.4238"
       y1="228.7114"
       x2="437.423"
       y2="612.62152"
       id="SVGID_1_"
       gradientUnits="userSpaceOnUse">
      <stop
         id="stop9"
         style="stop-color:#1077b9;stop-opacity:1"
         offset="0" />
      <stop
         id="stop11"
         style="stop-color:#042a54;stop-opacity:1"
         offset="1" />
    </linearGradient>
    <linearGradient
       x1="157.4238"
       y1="228.7114"
       x2="437.423"
       y2="612.62152"
       id="linearGradient3320"
       xlink:href="#SVGID_1_"
       gradientUnits="userSpaceOnUse" />
  </defs>
  <g
     id="layer1"
     transform="matrix(0.04587356,0,0,0.04589245,0.73447365,0.67535244)">
    <g
       transform="matrix(3.2000005,0,0,3.2000005,-152.44813,-547.02412)"
       id="g2408">
      <path
         d="m -14.578186,-172.20477 c 2e-6,155.49088 -132.169204,281.54115 -295.208194,281.54115 -163.03898,0 -295.20819,-126.05027 -295.20819,-281.54115 0,-155.49088 132.16921,-281.54115 295.20819,-281.54115 163.03899,0 295.208196,126.05027 295.208194,281.54115 l 0,0 z"
         transform="matrix(0.8451475,0,0,0.886174,559.45518,573.54839)"
         id="path3301"
         style="opacity:1;fill:#bec7cb;fill-opacity:1;stroke:#000000;stroke-width:1.16822207;stroke-miterlimit:18.20000076;stroke-dasharray:none;stroke-opacity:1"
         inkscape:connector-curvature="0" />
      <g
         transform="translate(-0.02699219,-0.055)"
         id="g3303">
        <g
           id="Ebene_2">
          <linearGradient
             x1="157.4238"
             y1="228.7114"
             x2="437.423"
             y2="612.62152"
             id="linearGradient2438"
             gradientUnits="userSpaceOnUse">
            <stop
               id="stop2440"
               style="stop-color:#1077b9;stop-opacity:1"
               offset="0" />
            <stop
               id="stop2442"
               style="stop-color:#042a54;stop-opacity:1"
               offset="1" />
          </linearGradient>
          <circle
             cx="297.66699"
             cy="421"
             r="241.334"
             id="circle13"
             style="fill:url(#linearGradient3320);stroke:#000000" />
        </g>
        <path
           d="m -69.581253,194.39795 c 0.01449,128.46173 -102.677887,232.60833 -229.360367,232.60833 -126.68248,0 -229.37486,-104.1466 -229.36037,-232.60833 -0.0145,-128.46173 102.67789,-232.60833 229.36037,-232.60833 126.68248,0 229.374855,104.1466 229.360367,232.60833 l 0,0 z"
           transform="matrix(0.8258426,0,0,0.8227147,541.95472,259.95865)"
           id="path3297"
           style="opacity:1;fill:#ffffff;fill-opacity:1;stroke:none;stroke-width:0.25299999;stroke-miterlimit:18.20000076;stroke-dasharray:none;stroke-opacity:1"
           inkscape:connector-curvature="0" />
        <g
           transform="translate(-0.09037095,0.5185818)"
           id="Ebene_5">
          <radialGradient
             cx="243.66701"
             cy="294.6665"
             r="307.66959"
             id="radialGradient2447"
             gradientUnits="userSpaceOnUse">
            <stop
               id="stop2449"
               style="stop-color:#209bd3;stop-opacity:1"
               offset="0" />
            <stop
               id="stop2451"
               style="stop-color:#136194;stop-opacity:1"
               offset="0.54570001" />
            <stop
               id="stop2453"
               style="stop-color:#0a3b6c;stop-opacity:1"
               offset="1" />
          </radialGradient>
          <ellipse
             cx="297.66699"
             cy="420.66699"
             rx="170"
             ry="170.666"
             id="ellipse24"
             style="fill:url(#radialGradient3322)" />
        </g>
        <path
           d="m 305.97971,221.62961 c -113.44279,0 -205.53125,92.08845 -205.53126,205.53125 1e-5,113.44285 92.08847,205.49999 205.53126,205.5 113.44283,4e-5 205.50001,-92.05718 205.5,-205.5 4e-5,-113.44277 -92.05721,-205.53125 -205.5,-205.53125 z m -1.625,28.46875 c 17.52821,-0.1279 35.05221,2.27974 51.84375,7.25 l -26.09375,57.59375 -25.90625,56.4375 -25.46875,-56.71875 -26.1875,-56.53125 c 16.74647,-5.23398 34.28432,-7.90335 51.8125,-8.03125 z m 89.53125,23.40625 c 17.48917,10.17881 35.85903,23.95583 54,48.0625 -26.23413,62.40774 -54.7327,129.27913 -81.3125,191.90625 l -35.125,-80.40625 -55.03125,0 -36.03125,79.03125 c -27.66793,-62.10002 -54.38703,-123.99981 -78.59375,-187.5625 17.04806,-24.08951 34.33989,-37.11626 51.6875,-48.625 20.73374,47.49394 41.485,94.97485 62.21875,142.46875 l 55.65625,0 c 20.87743,-47.96483 41.64392,-97.02927 62.53125,-144.875 z m 79.53125,96.40625 c 2.64295,8.20118 7.21654,23.27203 8.9375,46.6875 0.84666,11.5197 0.39933,26.97469 -2.34375,41.96875 -4.63989,25.36229 -15.31628,51.35017 -32.21875,73.90625 -3.51292,4.68789 -7.31867,9.21949 -11.40625,13.65625 -15.46385,16.78484 -35.4212,32.04554 -59.78125,42.90625 7.44937,-13.26173 14.26645,-26.74361 20.40625,-40.15625 8.64384,-18.88278 17.31304,-37.74328 25.3125,-56.84375 1.91563,-4.57398 4.04827,-9.0661 6.09375,-13.59375 7.26394,-16.07871 14.16855,-32.66696 20.84375,-48.96875 7.19531,-17.57197 17.72248,-41.55516 24.15625,-59.5625 z m -336.34375,4.375 c 6.43377,18.00736 13.08594,36.42802 20.28125,54 6.6752,16.30181 13.67356,32.67128 20.9375,48.75 16.75804,37.09389 34.29799,73.74288 53.09375,110.34375 -32.03821,-15.42229 -53.45049,-35.57094 -69.46875,-57.90625 -25.0277,-34.89771 -33.09589,-73.27968 -32.75,-103.8125 0.27294,-24.09411 5.18727,-43.41234 7.90625,-51.375 z m 166.46875,107.40625 53.28125,114.6875 c -14.02168,4.70735 -28.99497,6.70194 -44.25,7.09375 -2.42598,0.0623 -4.84359,0.076 -7.28125,0.0625 -20.38725,-0.11287 -37.75512,-2.83153 -53.65625,-8.28125 l 51.90625,-113.5625 z"
           id="path3299"
           style="opacity:0.65;fill:#000000;fill-opacity:1;stroke:none;stroke-width:0.25299999;stroke-miterlimit:18.20000076;stroke-dasharray:none;stroke-opacity:1;filter:url(#filter3293)"
           inkscape:connector-curvature="0" />
        <path
           d="m 311.99082,219.85875 c -113.44279,0 -205.53125,92.08845 -205.53126,205.53125 1e-5,113.44285 92.08847,205.49999 205.53126,205.5 113.44283,4e-5 205.50001,-92.05718 205.5,-205.5 4e-5,-113.44277 -92.05721,-205.53125 -205.5,-205.53125 z m -1.625,28.46875 c 17.52821,-0.1279 35.05221,2.27974 51.84375,7.25 l -26.09375,57.59375 -25.90625,56.4375 -25.46875,-56.71875 -26.1875,-56.53125 c 16.74647,-5.23398 34.28432,-7.90335 51.8125,-8.03125 z m 89.53125,23.40625 c 17.48917,10.17881 35.85903,23.95583 54,48.0625 -26.23413,62.40774 -54.7327,129.27913 -81.3125,191.90625 l -35.125,-80.40625 -55.03125,0 -36.03125,79.03125 C 218.72914,448.22748 192.01004,386.32769 167.80332,322.765 c 17.04806,-24.08951 34.33989,-37.11626 51.6875,-48.625 20.73374,47.49394 41.485,94.97485 62.21875,142.46875 l 55.65625,0 c 20.87743,-47.96483 41.64392,-97.02927 62.53125,-144.875 z M 479.42832,368.14 c 2.64295,8.20118 7.21654,23.27203 8.9375,46.6875 0.84666,11.5197 0.39933,26.97469 -2.34375,41.96875 -4.63989,25.36229 -15.31628,51.35017 -32.21875,73.90625 -3.51292,4.68789 -7.31867,9.21949 -11.40625,13.65625 -15.46385,16.78484 -35.4212,32.04554 -59.78125,42.90625 7.44937,-13.26173 14.26645,-26.74361 20.40625,-40.15625 8.64384,-18.88278 17.31304,-37.74328 25.3125,-56.84375 1.91563,-4.57398 4.04827,-9.0661 6.09375,-13.59375 7.26394,-16.07871 14.16855,-32.66696 20.84375,-48.96875 7.19531,-17.57197 17.72248,-41.55516 24.15625,-59.5625 z m -336.34375,4.375 c 6.43377,18.00736 13.08594,36.42802 20.28125,54 6.6752,16.30181 13.67356,32.67128 20.9375,48.75 16.75804,37.09389 34.29799,73.74288 53.09375,110.34375 -32.03821,-15.42229 -53.45049,-35.57094 -69.46875,-57.90625 -25.0277,-34.89771 -33.09589,-73.27968 -32.75,-103.8125 0.27294,-24.09411 5.18727,-43.41234 7.90625,-51.375 z m 166.46875,107.40625 53.28125,114.6875 c -14.02168,4.70735 -28.99497,6.70194 -44.25,7.09375 -2.42598,0.0623 -4.84359,0.076 -7.28125,0.0625 -20.38725,-0.11287 -37.75512,-2.83153 -53.65625,-8.28125 l 51.90625,-113.5625 z"
           id="path3229"
           style="opacity:0.5;fill:#000000;fill-opacity:1;stroke:none;stroke-width:0.25299999;stroke-miterlimit:18.20000076;stroke-dasharray:none;stroke-opacity:1;filter:url(#filter3293)"
           inkscape:connector-curvature="0" />
        <path
           d="m 297.71875,215.65625 c -113.44279,0 -205.531249,92.08845 -205.53125,205.53125 8e-6,113.44285 92.08846,205.49999 205.53125,205.5 113.44283,4e-5 205.50001,-92.05718 205.5,-205.5 4e-5,-113.44277 -92.05721,-205.53125 -205.5,-205.53125 z m -1.625,28.46875 c 17.52821,-0.1279 35.05221,2.27974 51.84375,7.25 l -26.09375,57.59375 -25.90625,56.4375 -25.46875,-56.71875 -26.1875,-56.53125 c 16.74647,-5.23398 34.28432,-7.90335 51.8125,-8.03125 z m 89.53125,23.40625 c 17.48917,10.17881 35.85903,23.95583 54,48.0625 C 413.39087,378.00149 384.8923,444.87288 358.3125,507.5 l -35.125,-80.40625 -55.03125,0 L 232.125,506.125 c -27.66793,-62.10002 -54.38703,-123.99981 -78.59375,-187.5625 17.04806,-24.08951 34.33989,-37.11626 51.6875,-48.625 20.73374,47.49394 41.485,94.97485 62.21875,142.46875 l 55.65625,0 c 20.87743,-47.96483 41.64392,-97.02927 62.53125,-144.875 z m 79.53125,96.40625 c 2.64295,8.20118 7.21654,23.27203 8.9375,46.6875 0.84666,11.5197 0.39933,26.97469 -2.34375,41.96875 -4.63989,25.36229 -15.31628,51.35017 -32.21875,73.90625 -3.51292,4.68789 -7.31867,9.21949 -11.40625,13.65625 -15.46385,16.78484 -35.4212,32.04554 -59.78125,42.90625 7.44937,-13.26173 14.26645,-26.74361 20.40625,-40.15625 8.64384,-18.88278 17.31304,-37.74328 25.3125,-56.84375 1.91563,-4.57398 4.04827,-9.0661 6.09375,-13.59375 C 427.42019,456.39004 434.3248,439.80179 441,423.5 c 7.19531,-17.57197 17.72248,-41.55516 24.15625,-59.5625 z m -336.34375,4.375 c 6.43377,18.00736 13.08594,36.42802 20.28125,54 6.6752,16.30181 13.67356,32.67128 20.9375,48.75 16.75804,37.09389 34.29799,73.74288 53.09375,110.34375 -32.03821,-15.42229 -53.45049,-35.57094 -69.46875,-57.90625 -25.0277,-34.89771 -33.09589,-73.27968 -32.75,-103.8125 0.27294,-24.09411 5.18727,-43.41234 7.90625,-51.375 z m 166.46875,107.40625 53.28125,114.6875 c -14.02168,4.70735 -28.99497,6.70194 -44.25,7.09375 -2.42598,0.0623 -4.84359,0.076 -7.28125,0.0625 -20.38725,-0.11287 -37.75512,-2.83153 -53.65625,-8.28125 l 51.90625,-113.5625 z"
           transform="translate(-9.4696599e-6,0)"
           id="path3198"
           style="fill:url(#linearGradient3324);fill-opacity:1;stroke:#000000;stroke-width:0.55299997;stroke-miterlimit:18.20000076;stroke-dasharray:none;stroke-opacity:1"
           inkscape:connector-curvature="0" />
      </g>
    </g>
  </g>
</svg>
